# xmcd CD database file
#
# Track frame offsets:
#	182
#	15777
#	28062
#	40665
#	53560
#	66732
#	81897
#	93452
#	104590
#	117710
#	131797
#	145062
#	158920
#	170915
#	186330
#	201740
#	216260
#	228892
#	243717
#
# Disc length: 3441 seconds
#
# Revision: 1
# Processed by: cddbd v1.5.1PL0 Copyright (c) Steve Scherf et al.
# Submitted via: CDex 1.51
#
DISCID=210d6f13
DTITLE=Red Nichols/Phil Napoleon - 1923-1931
DYEAR=1990
DGENRE=Jazz
TTITLE0=Five Pennies
TTITLE1=That's Where The South Begins
TTITLE2=I'm Tickled Pink With A Blue-Eyes Baby
TTITLE3=At Last I'm Happy
TTITLE4=If You Haven't Got A Girl
TTITLE5='Taint Nobody's Biz-ness If I Do
TTITLE6=A Blues Serenade
TTITLE7=Off To Buffalo
TTITLE8=Clarinet Marmalade
TTITLE9=Take Your Finger Out Of Your Mouth
TTITLE10=Go, Joe, Go
TTITLE11=Red Head
TTITLE12=Playing The Blues
TTITLE13=I'm In The Jailhouse Now
TTITLE14=Mean To Me
TTITLE15=My Kinda Love
TTITLE16=Gettin' Hot (Waterloo)
TTITLE17=Anything
TTITLE18=You Can't Cheat A Cheater
EXTD=YEAR: 1990
EXTT0=
EXTT1=
EXTT2=
EXTT3=
EXTT4=
EXTT5=
EXTT6=
EXTT7=
EXTT8=
EXTT9=
EXTT10=
EXTT11=
EXTT12=
EXTT13=
EXTT14=
EXTT15=
EXTT16=
EXTT17=
EXTT18=
PLAYORDER=
